<mxfile host="app.diagrams.net" modified="2023-05-30T19:16:52.438Z" agent="Mozilla/5.0 (Macintosh; Intel Mac OS X 10_15_7) AppleWebKit/537.36 (KHTML, like Gecko) Chrome/113.0.0.0 Safari/537.36" etag="hN8iZWxs1ijWcsXArKkU" version="21.3.4" type="github">
  <diagram name="Page-1" id="mk7w8Jy9pMZxT-yU60Fw">
    <mxGraphModel dx="1912" dy="2128" grid="1" gridSize="10" guides="1" tooltips="1" connect="1" arrows="1" fold="1" page="1" pageScale="1" pageWidth="850" pageHeight="1100" math="0" shadow="0">
      <root>
        <mxCell id="0" />
        <mxCell id="1" parent="0" />
        <mxCell id="zTaSaWMFqW3K9oS2xFOq-24" value="" style="rounded=0;orthogonalLoop=1;jettySize=auto;html=1;exitX=0.5;exitY=0;exitDx=0;exitDy=0;strokeColor=#004C99;strokeWidth=2;entryX=0.15;entryY=0.685;entryDx=0;entryDy=0;entryPerimeter=0;exitPerimeter=0;" parent="1" target="wl---6Z1MDnz97I1kQeS-47" edge="1" source="-Y-mHMBH6MeAc0rdazy_-32">
          <mxGeometry relative="1" as="geometry">
            <mxPoint x="320" y="340" as="sourcePoint" />
            <mxPoint x="140" y="410" as="targetPoint" />
          </mxGeometry>
        </mxCell>
        <mxCell id="wl---6Z1MDnz97I1kQeS-2" style="rounded=0;orthogonalLoop=1;jettySize=auto;html=1;exitX=1;exitY=0.5;exitDx=0;exitDy=0;exitPerimeter=0;" parent="1" source="niubizenlinea.com.pe" target="wl---6Z1MDnz97I1kQeS-42" edge="1">
          <mxGeometry relative="1" as="geometry">
            <mxPoint x="1060" y="75" as="sourcePoint" />
          </mxGeometry>
        </mxCell>
        <mxCell id="wl---6Z1MDnz97I1kQeS-8" style="rounded=0;orthogonalLoop=1;jettySize=auto;html=1;entryX=0;entryY=0.5;entryDx=0;entryDy=0;entryPerimeter=0;startArrow=none;exitX=0.9;exitY=0.2;exitDx=0;exitDy=0;exitPerimeter=0;" parent="1" source="wl---6Z1MDnz97I1kQeS-38" target="niubizenlinea.com.pe" edge="1">
          <mxGeometry relative="1" as="geometry">
            <mxPoint x="470" y="270" as="sourcePoint" />
            <mxPoint x="940" y="75" as="targetPoint" />
          </mxGeometry>
        </mxCell>
        <mxCell id="wl---6Z1MDnz97I1kQeS-33" style="edgeStyle=orthogonalEdgeStyle;rounded=0;orthogonalLoop=1;jettySize=auto;html=1;entryX=0.446;entryY=1.01;entryDx=0;entryDy=0;fillColor=#dae8fc;strokeColor=#6c8ebf;entryPerimeter=0;strokeWidth=2;" parent="1" target="zTaSaWMFqW3K9oS2xFOq-2" edge="1">
          <mxGeometry relative="1" as="geometry">
            <mxPoint x="340" y="70" as="sourcePoint" />
          </mxGeometry>
        </mxCell>
        <mxCell id="zTaSaWMFqW3K9oS2xFOq-3" style="rounded=0;orthogonalLoop=1;jettySize=auto;html=1;exitX=0.707;exitY=1.01;exitDx=0;exitDy=0;fillColor=#d5e8d4;strokeColor=#009900;exitPerimeter=0;strokeWidth=2;entryX=0.709;entryY=0.11;entryDx=0;entryDy=0;entryPerimeter=0;" parent="1" source="zTaSaWMFqW3K9oS2xFOq-2" target="wl---6Z1MDnz97I1kQeS-49" edge="1">
          <mxGeometry relative="1" as="geometry">
            <mxPoint x="120" y="20" as="targetPoint" />
          </mxGeometry>
        </mxCell>
        <mxCell id="wl---6Z1MDnz97I1kQeS-28" style="edgeStyle=orthogonalEdgeStyle;rounded=0;orthogonalLoop=1;jettySize=auto;html=1;exitX=0.25;exitY=1;exitDx=0;exitDy=0;" parent="1" target="wl---6Z1MDnz97I1kQeS-25" edge="1">
          <mxGeometry relative="1" as="geometry">
            <Array as="points">
              <mxPoint x="820" y="420" />
              <mxPoint x="820" y="539" />
            </Array>
            <mxPoint x="830" y="420" as="sourcePoint" />
          </mxGeometry>
        </mxCell>
        <mxCell id="zTaSaWMFqW3K9oS2xFOq-1" value="Resportes por rango de fechas(Un año atras).&lt;br&gt;Mostrar 25 registros por pagina maximo 2 paginas.&lt;br&gt;&lt;p data-pm-slice=&quot;1 1 [&amp;quot;bulletList&amp;quot;,null,&amp;quot;listItem&amp;quot;,null]&quot;&gt;&lt;em&gt;&lt;font color=&quot;#ff3333&quot;&gt;contabilizar 10 días calendario, pasada esta fecha, el cliente ya no podrá realizar la sustentación, es decir el botón de “Sustentar” estará inhabilitado&lt;/font&gt;&lt;/em&gt;&lt;/p&gt;&lt;br&gt;&lt;br&gt;" style="text;html=1;strokeColor=none;fillColor=none;align=left;verticalAlign=middle;whiteSpace=wrap;rounded=0;" parent="1" vertex="1">
          <mxGeometry x="110" y="-220" width="290" height="30" as="geometry" />
        </mxCell>
        <mxCell id="zTaSaWMFqW3K9oS2xFOq-2" value="NBO" style="whiteSpace=wrap;html=1;" parent="1" vertex="1">
          <mxGeometry x="286.17" y="-120" width="120" height="80" as="geometry" />
        </mxCell>
        <mxCell id="zTaSaWMFqW3K9oS2xFOq-6" value="- Estados&lt;br&gt;&lt;span style=&quot;white-space: pre;&quot;&gt; &lt;/span&gt;-Pendiente&lt;br&gt;&lt;span style=&quot;white-space: pre;&quot;&gt; &lt;/span&gt;-Anulada&lt;br&gt;&lt;span style=&quot;white-space: pre;&quot;&gt; &lt;/span&gt;-&lt;br&gt;- Listas de controversias" style="text;html=1;strokeColor=none;fillColor=none;align=left;verticalAlign=middle;whiteSpace=wrap;rounded=0;" parent="1" vertex="1">
          <mxGeometry x="620" y="-150" width="160" height="10" as="geometry" />
        </mxCell>
        <mxCell id="zTaSaWMFqW3K9oS2xFOq-9" style="rounded=0;orthogonalLoop=1;jettySize=auto;html=1;entryX=1;entryY=0.25;entryDx=0;entryDy=0;exitX=0;exitY=0.5;exitDx=0;exitDy=0;" parent="1" source="zTaSaWMFqW3K9oS2xFOq-7" target="zTaSaWMFqW3K9oS2xFOq-2" edge="1">
          <mxGeometry relative="1" as="geometry" />
        </mxCell>
        <mxCell id="zTaSaWMFqW3K9oS2xFOq-7" value="Estados" style="whiteSpace=wrap;html=1;" parent="1" vertex="1">
          <mxGeometry x="490" y="-180" width="120" height="60" as="geometry" />
        </mxCell>
        <mxCell id="zTaSaWMFqW3K9oS2xFOq-12" style="edgeStyle=orthogonalEdgeStyle;rounded=0;orthogonalLoop=1;jettySize=auto;html=1;entryX=1;entryY=0.5;entryDx=0;entryDy=0;" parent="1" source="zTaSaWMFqW3K9oS2xFOq-10" target="zTaSaWMFqW3K9oS2xFOq-2" edge="1">
          <mxGeometry relative="1" as="geometry" />
        </mxCell>
        <mxCell id="zTaSaWMFqW3K9oS2xFOq-10" value="Listas" style="whiteSpace=wrap;html=1;" parent="1" vertex="1">
          <mxGeometry x="490" y="-110" width="120" height="60" as="geometry" />
        </mxCell>
        <mxCell id="zTaSaWMFqW3K9oS2xFOq-13" style="rounded=0;orthogonalLoop=1;jettySize=auto;html=1;entryX=1;entryY=0.75;entryDx=0;entryDy=0;exitX=0;exitY=0.5;exitDx=0;exitDy=0;" parent="1" source="zTaSaWMFqW3K9oS2xFOq-11" target="zTaSaWMFqW3K9oS2xFOq-2" edge="1">
          <mxGeometry relative="1" as="geometry" />
        </mxCell>
        <mxCell id="zTaSaWMFqW3K9oS2xFOq-11" value="Carta" style="whiteSpace=wrap;html=1;" parent="1" vertex="1">
          <mxGeometry x="490" y="-40" width="120" height="60" as="geometry" />
        </mxCell>
        <mxCell id="zTaSaWMFqW3K9oS2xFOq-21" value="S3" style="sketch=0;points=[[0,0,0],[0.25,0,0],[0.5,0,0],[0.75,0,0],[1,0,0],[0,1,0],[0.25,1,0],[0.5,1,0],[0.75,1,0],[1,1,0],[0,0.25,0],[0,0.5,0],[0,0.75,0],[1,0.25,0],[1,0.5,0],[1,0.75,0]];outlineConnect=0;fontColor=#232F3E;gradientColor=#60A337;gradientDirection=north;fillColor=#277116;strokeColor=#ffffff;dashed=0;verticalLabelPosition=bottom;verticalAlign=top;align=center;html=1;fontSize=12;fontStyle=0;aspect=fixed;shape=mxgraph.aws4.resourceIcon;resIcon=mxgraph.aws4.s3;" parent="1" vertex="1">
          <mxGeometry x="881" y="680" width="78" height="78" as="geometry" />
        </mxCell>
        <mxCell id="-Y-mHMBH6MeAc0rdazy_-28" style="rounded=0;orthogonalLoop=1;jettySize=auto;html=1;entryX=0.1;entryY=0.2;entryDx=0;entryDy=0;entryPerimeter=0;" edge="1" parent="1" source="wl---6Z1MDnz97I1kQeS-35" target="-Y-mHMBH6MeAc0rdazy_-3">
          <mxGeometry relative="1" as="geometry" />
        </mxCell>
        <mxCell id="wl---6Z1MDnz97I1kQeS-35" value="support-nelw-controversies" style="sketch=0;html=1;dashed=0;whitespace=wrap;fillColor=#2875E2;strokeColor=#ffffff;points=[[0.005,0.63,0],[0.1,0.2,0],[0.9,0.2,0],[0.5,0,0],[0.995,0.63,0],[0.72,0.99,0],[0.5,1,0],[0.28,0.99,0]];verticalLabelPosition=bottom;align=center;verticalAlign=top;shape=mxgraph.kubernetes.icon;prIcon=pod" parent="1" vertex="1">
          <mxGeometry x="312" y="280" width="104.17" height="100" as="geometry" />
        </mxCell>
        <object placeholders="1" c4Type="Container name" label="&lt;font style=&quot;font-size: 16px&quot;&gt;&lt;b&gt;%c4Type%&lt;/b&gt;&lt;/font&gt;&lt;div&gt;[%c4Container%:&amp;nbsp;%c4Technology%]&lt;/div&gt;&lt;br&gt;&lt;div&gt;&lt;font style=&quot;font-size: 11px&quot;&gt;&lt;font color=&quot;#E6E6E6&quot;&gt;%c4Description%&lt;/font&gt;&lt;/div&gt;" id="niubizenlinea.com.pe">
          <mxCell style="shape=mxgraph.c4.webBrowserContainer2;whiteSpace=wrap;html=1;boundedLbl=1;rounded=0;labelBackgroundColor=none;strokeColor=#118ACD;fillColor=#23A2D9;strokeColor=#118ACD;strokeColor2=#0E7DAD;fontSize=12;fontColor=#ffffff;align=center;metaEdit=1;points=[[0.5,0,0],[1,0.25,0],[1,0.5,0],[1,0.75,0],[0.5,1,0],[0,0.75,0],[0,0.5,0],[0,0.25,0]];resizable=0;fontFamily=Helvetica;" parent="1" vertex="1">
            <mxGeometry x="860" y="20" width="240" height="160" as="geometry" />
          </mxCell>
        </object>
        <mxCell id="wl---6Z1MDnz97I1kQeS-39" value="" style="rounded=0;orthogonalLoop=1;jettySize=auto;html=1;endArrow=none;" parent="1" source="wl---6Z1MDnz97I1kQeS-38" target="wl---6Z1MDnz97I1kQeS-35" edge="1">
          <mxGeometry relative="1" as="geometry">
            <mxPoint x="440" y="304.6666666666665" as="sourcePoint" />
            <mxPoint x="410" y="293" as="targetPoint" />
          </mxGeometry>
        </mxCell>
        <mxCell id="wl---6Z1MDnz97I1kQeS-38" value="" style="sketch=0;html=1;dashed=0;whitespace=wrap;fillColor=#2875E2;strokeColor=#ffffff;points=[[0.005,0.63,0],[0.1,0.2,0],[0.9,0.2,0],[0.5,0,0],[0.995,0.63,0],[0.72,0.99,0],[0.5,1,0],[0.28,0.99,0]];verticalLabelPosition=bottom;align=center;verticalAlign=top;shape=mxgraph.kubernetes.icon;prIcon=api;fontFamily=Helvetica;fontSize=12;fontColor=default;" parent="1" vertex="1">
          <mxGeometry x="645" y="140" width="50" height="48" as="geometry" />
        </mxCell>
        <mxCell id="wl---6Z1MDnz97I1kQeS-42" value="" style="sketch=0;html=1;dashed=0;whitespace=wrap;fillColor=#2875E2;strokeColor=#ffffff;points=[[0.005,0.63,0],[0.1,0.2,0],[0.9,0.2,0],[0.5,0,0],[0.995,0.63,0],[0.72,0.99,0],[0.5,1,0],[0.28,0.99,0]];verticalLabelPosition=bottom;align=center;verticalAlign=top;shape=mxgraph.kubernetes.icon;prIcon=api;fontFamily=Helvetica;fontSize=12;fontColor=default;" parent="1" vertex="1">
          <mxGeometry x="1237.63" y="202" width="50" height="48" as="geometry" />
        </mxCell>
        <mxCell id="wl---6Z1MDnz97I1kQeS-43" value="ms-tracking" style="sketch=0;html=1;dashed=0;whitespace=wrap;fillColor=#2875E2;strokeColor=#ffffff;points=[[0.005,0.63,0],[0.1,0.2,0],[0.9,0.2,0],[0.5,0,0],[0.995,0.63,0],[0.72,0.99,0],[0.5,1,0],[0.28,0.99,0]];verticalLabelPosition=bottom;align=center;verticalAlign=top;shape=mxgraph.kubernetes.icon;prIcon=pod;fontFamily=Helvetica;fontSize=11;fontColor=#FFFFFF;" parent="1" vertex="1">
          <mxGeometry x="1287.63" y="176" width="105.27" height="100" as="geometry" />
        </mxCell>
        <mxCell id="wl---6Z1MDnz97I1kQeS-48" style="shape=connector;rounded=0;orthogonalLoop=1;jettySize=auto;html=1;labelBackgroundColor=default;strokeColor=#00994D;fontFamily=Helvetica;fontSize=11;fontColor=#004C99;endArrow=classic;strokeWidth=2;entryX=0.747;entryY=0.091;entryDx=0;entryDy=0;entryPerimeter=0;" parent="1" source="wl---6Z1MDnz97I1kQeS-47" target="-Y-mHMBH6MeAc0rdazy_-32" edge="1">
          <mxGeometry relative="1" as="geometry" />
        </mxCell>
        <mxCell id="wl---6Z1MDnz97I1kQeS-47" value="ms-authorization" style="sketch=0;html=1;dashed=0;whitespace=wrap;fillColor=#2875E2;strokeColor=#ffffff;points=[[0.005,0.63,0],[0.1,0.2,0],[0.9,0.2,0],[0.5,0,0],[0.995,0.63,0],[0.72,0.99,0],[0.5,1,0],[0.28,0.99,0]];verticalLabelPosition=bottom;align=center;verticalAlign=top;shape=mxgraph.kubernetes.icon;prIcon=pod;fontFamily=Helvetica;fontSize=11;fontColor=#FFFFFF;" parent="1" vertex="1">
          <mxGeometry x="770" y="-170" width="140" height="100" as="geometry" />
        </mxCell>
        <mxCell id="wl---6Z1MDnz97I1kQeS-49" value="prs-controversias&lt;span dir=&quot;ltr&quot; class=&quot;ui-provider bnl bnm c d e f g h i j k l m n o p q r s t bnn bno w x y z ab ac ae af ag ah ai aj ak&quot;&gt;&lt;/span&gt;&lt;span dir=&quot;ltr&quot; class=&quot;ui-provider bnl bnm c d e f g h i j k l m n o p q r s t bnn bno w x y z ab ac ae af ag ah ai aj ak&quot;&gt;&lt;/span&gt;" style="sketch=0;html=1;dashed=0;whitespace=wrap;fillColor=#2875E2;strokeColor=#ffffff;points=[[0.005,0.63,0],[0.1,0.2,0],[0.9,0.2,0],[0.5,0,0],[0.995,0.63,0],[0.72,0.99,0],[0.5,1,0],[0.28,0.99,0]];verticalLabelPosition=bottom;align=center;verticalAlign=top;shape=mxgraph.kubernetes.icon;prIcon=pod" parent="1" vertex="1">
          <mxGeometry x="312" y="69" width="104.17" height="100" as="geometry" />
        </mxCell>
        <mxCell id="-Y-mHMBH6MeAc0rdazy_-1" style="edgeStyle=orthogonalEdgeStyle;rounded=0;orthogonalLoop=1;jettySize=auto;html=1;entryX=0.446;entryY=1.01;entryDx=0;entryDy=0;fillColor=#dae8fc;strokeColor=#6c8ebf;entryPerimeter=0;strokeWidth=2;exitX=0.361;exitY=0.061;exitDx=0;exitDy=0;exitPerimeter=0;" edge="1" parent="1" source="wl---6Z1MDnz97I1kQeS-35">
          <mxGeometry relative="1" as="geometry">
            <mxPoint x="350" y="279" as="sourcePoint" />
            <mxPoint x="350" y="170" as="targetPoint" />
          </mxGeometry>
        </mxCell>
        <mxCell id="-Y-mHMBH6MeAc0rdazy_-2" style="rounded=0;orthogonalLoop=1;jettySize=auto;html=1;exitX=0.707;exitY=1.01;exitDx=0;exitDy=0;fillColor=#d5e8d4;strokeColor=#009900;exitPerimeter=0;strokeWidth=2;entryX=0.709;entryY=0.11;entryDx=0;entryDy=0;entryPerimeter=0;" edge="1" parent="1">
          <mxGeometry relative="1" as="geometry">
            <mxPoint x="380" y="289" as="targetPoint" />
            <mxPoint x="381" y="170" as="sourcePoint" />
          </mxGeometry>
        </mxCell>
        <mxCell id="-Y-mHMBH6MeAc0rdazy_-15" style="edgeStyle=orthogonalEdgeStyle;rounded=0;orthogonalLoop=1;jettySize=auto;html=1;entryX=0.017;entryY=0.583;entryDx=0;entryDy=0;entryPerimeter=0;exitX=0.72;exitY=0.99;exitDx=0;exitDy=0;exitPerimeter=0;" edge="1" parent="1" source="-Y-mHMBH6MeAc0rdazy_-3" target="-Y-mHMBH6MeAc0rdazy_-11">
          <mxGeometry relative="1" as="geometry" />
        </mxCell>
        <mxCell id="-Y-mHMBH6MeAc0rdazy_-17" value="Actualiza" style="edgeLabel;html=1;align=center;verticalAlign=middle;resizable=0;points=[];" vertex="1" connectable="0" parent="-Y-mHMBH6MeAc0rdazy_-15">
          <mxGeometry x="-0.2507" y="-1" relative="1" as="geometry">
            <mxPoint as="offset" />
          </mxGeometry>
        </mxCell>
        <mxCell id="-Y-mHMBH6MeAc0rdazy_-22" style="rounded=0;orthogonalLoop=1;jettySize=auto;html=1;entryX=1;entryY=0.5;entryDx=0;entryDy=0;" edge="1" parent="1" source="-Y-mHMBH6MeAc0rdazy_-3" target="-Y-mHMBH6MeAc0rdazy_-19">
          <mxGeometry relative="1" as="geometry" />
        </mxCell>
        <mxCell id="-Y-mHMBH6MeAc0rdazy_-27" style="rounded=0;orthogonalLoop=1;jettySize=auto;html=1;entryX=0.9;entryY=0.795;entryDx=0;entryDy=0;entryPerimeter=0;" edge="1" parent="1" target="wl---6Z1MDnz97I1kQeS-35">
          <mxGeometry relative="1" as="geometry">
            <mxPoint x="860" y="420" as="sourcePoint" />
            <mxPoint x="490" y="369.7999999999997" as="targetPoint" />
          </mxGeometry>
        </mxCell>
        <mxCell id="-Y-mHMBH6MeAc0rdazy_-3" value="support-nelw-processing-inbox-async" style="sketch=0;html=1;dashed=0;whitespace=wrap;fillColor=#2875E2;strokeColor=#ffffff;points=[[0.005,0.63,0],[0.1,0.2,0],[0.9,0.2,0],[0.5,0,0],[0.995,0.63,0],[0.72,0.99,0],[0.5,1,0],[0.28,0.99,0]];verticalLabelPosition=bottom;align=center;verticalAlign=top;shape=mxgraph.kubernetes.icon;prIcon=pod;fontFamily=Helvetica;fontSize=12;fontColor=default;" vertex="1" parent="1">
          <mxGeometry x="850" y="380" width="140" height="100" as="geometry" />
        </mxCell>
        <mxCell id="-Y-mHMBH6MeAc0rdazy_-12" style="edgeStyle=orthogonalEdgeStyle;rounded=0;orthogonalLoop=1;jettySize=auto;html=1;" edge="1" parent="1" source="-Y-mHMBH6MeAc0rdazy_-6" target="-Y-mHMBH6MeAc0rdazy_-3">
          <mxGeometry relative="1" as="geometry" />
        </mxCell>
        <mxCell id="-Y-mHMBH6MeAc0rdazy_-14" style="edgeStyle=orthogonalEdgeStyle;rounded=0;orthogonalLoop=1;jettySize=auto;html=1;" edge="1" parent="1" source="-Y-mHMBH6MeAc0rdazy_-6" target="-Y-mHMBH6MeAc0rdazy_-11">
          <mxGeometry relative="1" as="geometry" />
        </mxCell>
        <mxCell id="-Y-mHMBH6MeAc0rdazy_-16" value="Crea" style="edgeLabel;html=1;align=center;verticalAlign=middle;resizable=0;points=[];" vertex="1" connectable="0" parent="-Y-mHMBH6MeAc0rdazy_-14">
          <mxGeometry x="0.0167" y="1" relative="1" as="geometry">
            <mxPoint as="offset" />
          </mxGeometry>
        </mxCell>
        <mxCell id="-Y-mHMBH6MeAc0rdazy_-6" value="channel-nelw-processing-inbox" style="sketch=0;html=1;dashed=0;whitespace=wrap;fillColor=#2875E2;strokeColor=#ffffff;points=[[0.005,0.63,0],[0.1,0.2,0],[0.9,0.2,0],[0.5,0,0],[0.995,0.63,0],[0.72,0.99,0],[0.5,1,0],[0.28,0.99,0]];verticalLabelPosition=bottom;align=center;verticalAlign=top;shape=mxgraph.kubernetes.icon;prIcon=pod;fontFamily=Helvetica;fontSize=12;fontColor=default;" vertex="1" parent="1">
          <mxGeometry x="1070" y="380" width="140" height="100" as="geometry" />
        </mxCell>
        <mxCell id="-Y-mHMBH6MeAc0rdazy_-9" value="" style="endArrow=classic;html=1;rounded=0;" edge="1" parent="1" source="niubizenlinea.com.pe" target="-Y-mHMBH6MeAc0rdazy_-6">
          <mxGeometry width="50" height="50" relative="1" as="geometry">
            <mxPoint x="770" y="450" as="sourcePoint" />
            <mxPoint x="820" y="400" as="targetPoint" />
          </mxGeometry>
        </mxCell>
        <mxCell id="-Y-mHMBH6MeAc0rdazy_-10" value="" style="endArrow=classic;html=1;rounded=0;exitX=0.5;exitY=1;exitDx=0;exitDy=0;exitPerimeter=0;" edge="1" parent="1" source="-Y-mHMBH6MeAc0rdazy_-3" target="zTaSaWMFqW3K9oS2xFOq-21">
          <mxGeometry width="50" height="50" relative="1" as="geometry">
            <mxPoint x="730" y="390" as="sourcePoint" />
            <mxPoint x="780" y="340" as="targetPoint" />
          </mxGeometry>
        </mxCell>
        <mxCell id="-Y-mHMBH6MeAc0rdazy_-11" value="MONGO" style="shape=cylinder3;whiteSpace=wrap;html=1;boundedLbl=1;backgroundOutline=1;size=15;" vertex="1" parent="1">
          <mxGeometry x="1110" y="600" width="60" height="80" as="geometry" />
        </mxCell>
        <mxCell id="-Y-mHMBH6MeAc0rdazy_-24" style="edgeStyle=orthogonalEdgeStyle;rounded=0;orthogonalLoop=1;jettySize=auto;html=1;" edge="1" parent="1" source="-Y-mHMBH6MeAc0rdazy_-19" target="-Y-mHMBH6MeAc0rdazy_-23">
          <mxGeometry relative="1" as="geometry" />
        </mxCell>
        <mxCell id="-Y-mHMBH6MeAc0rdazy_-19" value="RABITMQ" style="ellipse;whiteSpace=wrap;html=1;aspect=fixed;" vertex="1" parent="1">
          <mxGeometry x="630" y="680" width="80" height="80" as="geometry" />
        </mxCell>
        <mxCell id="-Y-mHMBH6MeAc0rdazy_-29" style="edgeStyle=orthogonalEdgeStyle;rounded=0;orthogonalLoop=1;jettySize=auto;html=1;entryX=0.005;entryY=0.63;entryDx=0;entryDy=0;entryPerimeter=0;" edge="1" parent="1" source="-Y-mHMBH6MeAc0rdazy_-23" target="-Y-mHMBH6MeAc0rdazy_-25">
          <mxGeometry relative="1" as="geometry" />
        </mxCell>
        <mxCell id="-Y-mHMBH6MeAc0rdazy_-31" style="rounded=0;orthogonalLoop=1;jettySize=auto;html=1;entryX=0.995;entryY=0.63;entryDx=0;entryDy=0;entryPerimeter=0;" edge="1" parent="1" source="-Y-mHMBH6MeAc0rdazy_-23" target="-Y-mHMBH6MeAc0rdazy_-30">
          <mxGeometry relative="1" as="geometry" />
        </mxCell>
        <mxCell id="-Y-mHMBH6MeAc0rdazy_-23" value="ms-notification-delivery" style="sketch=0;html=1;dashed=0;whitespace=wrap;fillColor=#2875E2;strokeColor=#ffffff;points=[[0.005,0.63,0],[0.1,0.2,0],[0.9,0.2,0],[0.5,0,0],[0.995,0.63,0],[0.72,0.99,0],[0.5,1,0],[0.28,0.99,0]];verticalLabelPosition=bottom;align=center;verticalAlign=top;shape=mxgraph.kubernetes.icon;prIcon=pod;fontFamily=Helvetica;fontSize=12;fontColor=default;" vertex="1" parent="1">
          <mxGeometry x="360" y="690" width="140" height="100" as="geometry" />
        </mxCell>
        <mxCell id="-Y-mHMBH6MeAc0rdazy_-25" value="ms-notification" style="sketch=0;html=1;dashed=0;whitespace=wrap;fillColor=#2875E2;strokeColor=#ffffff;points=[[0.005,0.63,0],[0.1,0.2,0],[0.9,0.2,0],[0.5,0,0],[0.995,0.63,0],[0.72,0.99,0],[0.5,1,0],[0.28,0.99,0]];verticalLabelPosition=bottom;align=center;verticalAlign=top;shape=mxgraph.kubernetes.icon;prIcon=pod;fontFamily=Helvetica;fontSize=12;fontColor=default;" vertex="1" parent="1">
          <mxGeometry x="460" y="500" width="140" height="100" as="geometry" />
        </mxCell>
        <mxCell id="-Y-mHMBH6MeAc0rdazy_-30" value="ms-user-notifications" style="sketch=0;html=1;dashed=0;whitespace=wrap;fillColor=#2875E2;strokeColor=#ffffff;points=[[0.005,0.63,0],[0.1,0.2,0],[0.9,0.2,0],[0.5,0,0],[0.995,0.63,0],[0.72,0.99,0],[0.5,1,0],[0.28,0.99,0]];verticalLabelPosition=bottom;align=center;verticalAlign=top;shape=mxgraph.kubernetes.icon;prIcon=pod;fontFamily=Helvetica;fontSize=12;fontColor=default;" vertex="1" parent="1">
          <mxGeometry x="200" y="520" width="140" height="100" as="geometry" />
        </mxCell>
        <mxCell id="-Y-mHMBH6MeAc0rdazy_-32" value="channel-nelw-controversies" style="sketch=0;html=1;dashed=0;whitespace=wrap;fillColor=#2875E2;strokeColor=#ffffff;points=[[0.005,0.63,0],[0.1,0.2,0],[0.9,0.2,0],[0.5,0,0],[0.995,0.63,0],[0.72,0.99,0],[0.5,1,0],[0.28,0.99,0]];verticalLabelPosition=bottom;align=center;verticalAlign=top;shape=mxgraph.kubernetes.icon;prIcon=pod" vertex="1" parent="1">
          <mxGeometry x="550" y="140" width="104.17" height="100" as="geometry" />
        </mxCell>
      </root>
    </mxGraphModel>
  </diagram>
</mxfile>
